<?xml version="1.0" encoding="UTF-8"?>
<svg id="Layer_2" xmlns="http://www.w3.org/2000/svg" viewBox="0 0 2672.61 3046.68">
  <defs>
    <style>
      .cls-1 {
        fill: #0c3537;
      }
    </style>
  </defs>
  <g id="Layer_1-2" data-name="Layer_1">
    <path class="cls-1" d="M2662.93,1522.08c0-268.91-10.07-508.7-5.04-778.67-101.83-68.86-214.6-126.14-325.08-189-296.84-168.89-603.53-344.95-904.67-514.08C1399.83,24.43,1362.54-.74,1337.43.02c-32.86.99-66.08,28.18-95.76,45.36C856.71,268.2,480.14,475.99,92.56,693.01c-22.84,12.79-71.67,38.34-75.6,52.92-5.48,20.36,2.52,61.35,2.52,95.76-.01,96.94-1.13,201.93-2.52,292.32-5.02,327.02-10.07,641.56-10.08,972.71,0,58.53-15.47,149.76,0,191.52,6.56,17.69,49.13,38.08,75.6,52.92,396.03,222.09,775.4,433.24,1166.75,652.67,23.97,13.44,63.92,43.47,88.2,42.84,21.39-.55,62-29.65,85.68-42.84,396.18-220.59,773.31-433.64,1166.75-652.67,28.98-16.13,71.03-33.78,78.12-52.92,7.8-21.07,3.65-62.93,2.52-95.76-7.86-227.82-7.55-465.45-7.56-680.39ZM2267.3,1592.64c-22.33-1.43-29.22,47.12-32.76,60.48-19.87,74.95-40.27,146.18-63,214.2-23.7-36.79-43.12-77.84-65.52-115.92,21.59-55.01,45.38-108.66,68.04-171.36,6.47-17.91,19.36-48.5-7.56-50.4-24.33-1.72-41.59,67.9-47.88,83.16-14.78,35.89-23.51,61.88-37.8,90.72-18.15-28.05-32.83-59.57-50.4-88.2,6.82-33.19,69.71-70.28,65.52-103.32-5.65-44.57-44.8,2.81-55.44,17.64-12.45,17.36-21.19,28.06-30.24,42.84-19.06-21.26-28.99-51.65-45.36-75.6,15.42-20.42,32.14-35.43,55.44-55.44,13.32-11.44,84.4-59.69,40.32-73.08-21.31-6.47-46.16,25.69-63,40.32-23.69,20.58-37.84,36.76-55.44,47.88-13.93-28.91-30.23-55.45-45.36-83.16,15.2-29.19,83.74-31.1,83.16-65.52-.88-52.81-82.77,21.44-103.32,22.68-19.75-23.93-33.24-54.12-47.88-83.16,17-7.35,37.98-23.46,65.52-40.32,24.65-15.09,79.46-33.07,47.88-63-60.33,7.7-85.4,50.67-136.08,68.04-12.99-34.89-36.26-59.5-47.88-95.76,18.52-7.07,42.15-8.93,42.84-27.72,1.17-31.67-42.56-16.89-65.52-7.56-12.97-26.51-30.49-48.47-40.32-78.12,28.07-12.51,109.01-7.96,103.32-45.36-5.93-39.01-104.11,11.58-126,12.6-16.55-39.73-41.4-71.16-57.96-110.88,28.07-3.58,50.02-4.23,83.16-10.08,19.96-3.52,64-6.55,63-30.24-1.25-29.59-52.82-14.18-78.12-10.08-33.17,5.37-62.68,12.96-88.2,10.08-28.23-36.45-48.11-81.25-70.56-123.48,23.12-5.03,155.01,27.38,148.68-17.64-5.24-37.28-143.48-8.52-173.88-25.2-16.62-31.26-35.07-60.69-50.4-93.24,53.03,8.77,105.57,26.14,166.32,35.28,13.64,2.05,44.18,6.29,45.36-15.12,1.67-30.17-85-34.28-113.4-40.32-47.73-10.16-85.58-17.86-126-27.72-13.65-27.51-30.99-51.33-42.84-80.64,411.19,112.13,819.32,227.31,1232.27,337.68-118.3,415.93-239.72,828.75-357.84,1244.87-18.91-29.81-34.9-62.54-52.92-93.24,23.64-80.38,49.43-162.83,73.08-252,5.89-22.19,25.42-73.65-5.04-75.6ZM1360.1,50.42c382.49,213.91,760.53,432.25,1144.07,645.11-36.12-1.68-76.8-20.63-115.92-27.72-1.23-7.95,4.54-8.9,2.52-17.64-7.76-6.83-107.53-84.15-118.44-45.36-5.71,20.31,15.08,27.3,27.72,35.28-60.56-6.06-97.11-40.74-153.72-80.64-14.64-10.32-31.84-21.31-50.4-35.28-16.25-12.23-66.06-55.97-70.56-15.12-1.99,18.13,30.35,35.81,42.84,45.36,20.12,15.39,32.65,24.74,50.4,35.28-41.79-3.58-88.39-24.16-133.56-32.76-18.79-7.74-41.17-65.53-68.04-63-18.78,1.77-20.92,27.54-10.08,40.32-57.42-15.66-115.93-30.23-171.36-47.88-11.57-.09,3.71-7.17,0-15.12-10.85-16.28-18.79-46.81-40.32-45.36-25.95,1.75-16.29,34.61-7.56,47.88-55.02-13.02-105.69-30.39-161.28-42.84,7.41-43.35-64.02-82.42-47.88-15.12-41.81-9.43-81.1-21.39-120.96-32.76v-65.52c27.67.25,79.67,32.72,83.16-2.52,2.72-27.37-50.66-33.02-83.16-37.8v-63c19.69,10.74,63.46,32.02,65.52,0,1.82-28.36-48.25-29.96-65.52-47.88,1.61-37.87-3.27-82.23,2.52-115.92ZM2221.94,2048.76c-588.33,1.34-1182.25-2.89-1766.5,2.52-2-18.29,12.03-33.24,20.16-47.88,285.14-513.65,575.24-1043.5,861.83-1557.35,294.84,532.57,596.2,1071.99,884.51,1602.71ZM1317.27,50.42v113.4c-21.89,14.11-72.54,23.41-73.08,50.4-.8,40.28,54.16,6.04,73.08-5.04v73.08c-26.37,9.01-72.48,11.34-73.08,37.8-.82,36.37,46.77,9.29,73.08,5.04v57.96c-31.87,10.12-66.07,17.93-98.28,27.72-4.44-40.85-47.82-28.28-52.92,15.12-46.45,11.51-92.27,23.65-136.08,37.8-17.03-27.15-48.04-8.52-55.44,15.12-27.93,4.83-51.1,14.42-78.12,20.16,19.07-67.98-62.77-18.46-60.48,17.64-30.95,7.69-61.85,15.43-90.72,25.2-16.35-45.23-66.95-5.96-78.12,20.16-37.68,10.5-94.29,27.99-122.4,32.58,19.71-3.86,50.67-45.58,16.56-52.74-23.1-4.85-99.8,55.74-110.88,80.64-10.18,2.42-20.06,5.14-30.24,7.56-2.43-8.98.68-28.98-15.12-32.76-24.26-5.81-72.8,42.22-80.64,60.48-53,11.68-100.81,28.55-153.72,40.32C552.15,481.44,932.62,263.88,1317.27,50.42ZM1294.59,430.93c-6.9,30.06-32.87,62.89-47.88,93.24-39.49,1.75-73.04,12.41-113.4,20.16-29.74,5.71-97.68,3.63-100.8,30.24-4.48,38.29,66,16.83,88.2,12.6,36.81-7.02,68.33-15.24,100.8-20.16-15.05,36.2-36.49,65.99-52.92,100.8-61.66,1.11-125.06,15.75-196.56,25.2-24.04,3.17-51.05,4.34-52.92,22.68-3.86,37.9,79.54,16.38,105.84,12.6,43.03-6.19,77.3-16.09,115.92-20.16,3.96,11.02-8.72,21.24-15.12,32.76-18.87,33.99-38.95,77.84-60.48,110.88-30.81-2.06-57.03-6.16-93.24-10.08-26.66-2.88-76.53-15.66-80.64,10.08-4.46,27.95,43.59,27.72,65.52,30.24,35.43,4.07,56.99,4.18,85.68,7.56-20.94,49.62-50.36,90.76-73.08,138.6-24.24-7.29-73.28-33.71-73.08,2.52.13,23.13,29.93,23,50.4,32.76-21.09,49.46-51.04,90.08-73.08,138.6-17.09-8.54-36.05-16.9-60.48-30.24-19.77-10.8-68.49-52.67-75.6-15.12-4.56,24.12,33.47,34.69,52.92,45.36,24.04,13.19,40.03,25.5,60.48,35.28-21.8,47.92-49.62,89.82-73.08,136.08-20.25-5.91-75.69-57.1-83.16-17.64-5.24,27.66,43.07,39.03,63,52.92-22.82,44.37-49.02,85.37-70.56,131.04-32.41-7.32-62.08-85.94-100.8-78.12-45.25,9.13,15.23,54.3,30.24,68.04,20.13,18.43,34.19,32.53,47.88,50.4-30.61,51.71-59.61,105.03-88.2,158.76-17.36-18.12-26.24-39.44-42.84-65.52-10.09-15.85-29.53-58.78-50.4-57.96-47.64,1.88,13.49,75.88,22.68,90.72,18.48,29.86,30.23,54.67,47.88,70.56-17.75,37.69-39.94,70.94-57.96,108.36-13.62-20.56-20.79-43.98-32.76-73.08-7.63-18.56-19.22-63.06-40.32-63-43.84.12,4.9,79.09,12.6,98.28,13.2,32.9,21.03,61.16,35.28,80.64-13.88,29.8-32.4,54.96-45.36,85.68-123.25-410.16-238.3-828.48-360.36-1239.83,404.05-120.11,821.78-226.51,1229.75-342.72ZM57.28,897.13c17.16,45,29.2,95.11,42.84,143.64,6.61,7.35-7.27,9.48-5.04,20.16,1.04,27.36-3.32,56.94-7.56,90.72-3.4,27.07-18.2,70.9,7.56,75.6,35.27,6.43,27.07-55.45,32.76-85.68,3.59,18.14,20.35,40.06,22.68,70.56,3.41,44.62-41.76,113.69-2.52,118.44,16.06,1.94,24.16-11.69,25.2-30.24,13.56,25.17,17.74,59.17,27.72,93.24,9.24,31.52,26.63,64.34,27.72,93.24,1.01,26.72-15.88,55.88,17.64,60.48,21.61,64.29,42.33,151.4,65.52,229.32,7.89,26.51,22.93,54.91,22.68,75.6-.51,42.76-45.33,78.58-37.8,110.88,11.31,48.55,60.58-21.64,55.44-42.84,18.45,41.19,25.83,93.45,42.84,136.08-44.87,30.74-96.96,54.24-143.64,83.16,5.49-15.14,1.75-33.8-15.12-35.28-28.87-2.53-40.19,59.91-55.44,75.6-36.43,14.8-64.88,37.6-100.8,52.92,8.11-18.8,21.35-42.77,32.76-70.56,11.22-27.33,42.84-89.76,7.56-93.24-22.81-2.25-35.93,48.3-42.84,65.52-12.47,31.06-18.39,51.49-30.24,75.6-.85-431.76,9.4-874.28,10.08-1312.91ZM59.8,2293.2c23.33-12.11,55.97,11.62,83.16,22.68,28.28,11.5,58.04,31.15,88.2,20.16,14.72-45.21-82.66-54.89-113.4-73.08,12.46-14.24,24.29-16.09,40.32-25.2,10.37-5.89,25.9-21.65,42.84-22.68,20.93-1.27,46.89,15.28,65.52,22.68,21.98,8.72,77.72,42.08,80.64,5.04,2.66-33.79-81.05-37.92-98.28-55.44,52.75-31.25,107.4-60.6,161.28-90.72,34.88,7.96,51.32,34.36,70.56,57.96-52.98,14.39-4.54,73.34,27.72,27.72,33.91,34.13,68.57,67.51,98.28,105.84-22.05,2.88-15.5,33.04,0,37.8,11.33-.43,21.52-2,30.24-5.04,44.49,34.46,76.1,81.81,118.44,118.44-1.77,7.46-7.51,10.97-5.04,22.68,4.72,10.4,15.84,14.4,32.76,12.6,33.64,28.52,70.28,67.47,93.24,98.28-65.72.15-10.57,62.9,30.24,32.76,23.76,15.73,48.12,44.27,60.48,63-25.48-1.62-58.38-11.14-60.48,15.12-3.16,39.47,64.66,15.22,95.76,22.68,30.19,7.24,57.69,68.23,75.6,78.12-24.33-5.1-56.7-11.47-57.96,12.6-1.69,32.29,79.46,28.39,110.88,37.8,31.95,39.45,68.99,73.8,103.32,110.88-389.14-209.77-781.8-437.88-1174.31-652.67ZM1334.91,2996.27c-280.35-303.45-576.95-604.08-851.75-904.67,13.45,4.96,31.6-5.83,47.88-2.52,19.06,3.87,41.41,35.48,57.96,52.92,36,37.92,68.85,73.43,105.84,113.4,12.36,13.35,66.18,83.48,75.6,35.28,3.61-18.47-33.84-48.39-40.32-55.44-46.22-50.28-90.75-96.88-133.56-146.16h120.96c17.81,18.49,41.43,87.65,70.56,85.68,44.4-3-10.27-69.44-22.68-83.16,40.32-5.88,91.56-.84,136.08-2.52,16.44,23.41,22.39,48.27,37.8,80.64,9.52,19.99,25.96,68.06,47.88,68.04,41.39-.04,3.74-60.13-7.56-83.16-12.85-26.18-24.55-45.25-30.24-65.52h133.56c5.92,29.42.85,76.49,27.72,75.6,28.88-.96,16.15-45.96,12.6-75.6h110.88c16.89,34.4-9.69,125.25,27.72,128.52,42.71,3.73,10.11-90.79,15.12-128.52,37.03,1.61,80.54-3.26,113.4,2.52,8.01,28.44-10.95,65.05,20.16,65.52,25.03.37,24.33-37.46,20.16-68.04h128.52c8.53,23.17-64.32,99.91-22.68,115.92,27.69,10.65,57.47-80.05,63-115.92h115.92c-9.98,19.04-20.11,39.09-37.8,65.52-10.75,16.06-57.73,67.89-20.16,75.6,25.5,5.23,48.93-45.14,60.48-63,19.3-29.84,30.23-49.84,42.84-78.12h136.08c-19.27,31.77-54.12,70.42-83.16,105.84-10.37,12.65-41.69,46.43-12.6,55.44,27.2,8.42,70.23-60.22,80.64-73.08,26.46-32.67,45.23-57.3,65.52-88.2h123.48c3.62,7.52-7.25,14.2-12.6,20.16-30.84,34.32-63.77,69.7-98.28,108.36-6.2,6.95-56.18,51.67-17.64,60.48,21.65,4.95,42.67-31.26,52.92-42.84,45.77-51.7,93.51-100.5,141.12-146.16h55.44c6,8.24-12.16,16.39-20.16,25.2-269.07,296.32-560.8,590.2-836.63,881.99ZM1443.27,2948.39c24-36.48,68.84-73.96,100.8-110.88,30.04-9.82,121.81-21.66,118.44-55.44-2.68-26.87-36.37-15.53-55.44-5.04-3.4-7.12,8.77-15.99,15.12-22.68,21.27-22.4,48.92-50.6,70.56-73.08,41.57,22.3,106.95-31.57,42.84-40.32-4.62-5.82,7.02-14.46,12.6-20.16,17.96-18.35,43.22-43.44,60.48-63,42.59,26.03,100.47-24.8,35.28-35.28,25.26-31.02,55.65-56.92,80.64-88.2,9.45,5.63,28.28,2.33,35.28-2.52,6.59-13.04,2.1-20-2.52-32.76,27.63-20.25,43.95-51.81,73.08-70.56,36.15,45.58,83.65-13.59,25.2-30.24,43.31-46.57,87.31-92.45,131.04-138.6,15.65,17.72,55.14,43.01,57.96,7.56,1.57-19.73-16.01-23-27.72-35.28,9.39-15.81,21.48-28.92,35.28-40.32,25.42,9.02,44.38,24.5,68.04,35.28.31,16.91-66.62,91-15.12,90.72,27.77-.15,34.82-47.68,50.4-68.04,40.27,16.01,71.8,40.76,110.88,57.96-11.05,12.17-42.71,46.62-15.12,57.96,25.41,10.44,34.9-24.35,50.4-35.28,40,17.96,74.01,41.91,113.4,60.48-388.6,221.23-782.65,437.03-1171.79,657.71ZM2511.74,2189.88c8.89-29.35,22.01-97.93-12.6-95.76-27.63,1.73-14.77,44.27-20.16,73.08-38.51-15.25-68.83-38.69-105.84-55.44,1.66-28.61,34.14-97.64,0-103.32-32.6-5.42-26.5,53.51-35.28,80.64-21.81-7.6-37.96-20.84-57.96-30.24,12.55-46.25,25.39-92.21,37.8-138.6-.79,21.3,43.82,88.03,57.96,45.36,10.48-31.63-36.34-67.4-37.8-110.88-1.55-46.14,28.67-61.26,25.2-95.76,21.48,9.51,15.97,43.8,42.84,42.84,46.64-1.67-11.58-77.08-25.2-95.76,2.79-16.53,7.46-31.18,12.6-45.36,1.73-10.88,11.15,9.41,22.68,5.04,6.75-1.65,9.58-7.22,15.12-10.08,2.33-25.85-9.54-37.5-22.68-47.88,5.54-20.5,10.68-41.4,17.64-60.48,2.74,18.43,37.69,46.91,47.88,17.64,8.56-24.6-26.59-50.04-30.24-70.56-5.21-29.29,16.84-37.69,12.6-60.48,9.53,8.62,11.01,21.02,25.2,20.16,36.72-2.23,3.79-67.16-5.04-85.68,6.67-23.57,14.46-46.03,20.16-70.56,1.68,18.38,42.19,74.82,55.44,35.28,8.76-26.14-31.46-67.98-35.28-90.72,4.91-30.37,13.75-56.81,20.16-85.68,13.98,10.54,19.09,52.49,45.36,35.28,27.31-17.9-18.63-70.22-25.2-93.24,4.83-18.69,9.31-37.73,12.6-57.96,13.28.43,28.85-.03,32.76-15.12,3.21-12.39-11.83-26.12-12.6-40.32-1.82-33.6,24.96-60.44,25.2-88.2,8.03,448.91,9.24,904.68,15.12,1355.75-41.35-19.13-75.9-45.06-118.44-63Z"/>
  </g>
</svg>